#!OML:ASF F:\VICON\USERDATA\INSTALL\rory3\rory3.ASF
:FULLY-SPECIFIED
:DEGREES
430
root -6.62872 19.7251 0.897198 -13.0733 -84.3515 9.99367
lowerback 4.86239 1.65714 -1.40876
upperback -2.25757 2.07394 -0.697211
thorax -5.08983 1.05815 -0.123244
lowerneck -9.68206 -1.54575 -8.24714
upperneck -8.18797 -1.40987 4.68445
head -0.858565 -0.600349 2.92251
rclavicle -2.23633e-015 7.7526e-015
rhumerus 96.0183 -21.0496 -55.6327
rradius 29.0854
rwrist 21.6703
rhand -45.6121 -1.83111
rfingers 7.12502
rthumb -18.3726 -30.9835
lclavicle -2.23633e-015 7.7526e-015
lhumerus 82.9197 24.0856 35.1763
lradius 40.3084
lwrist 1.86351
lhand -28.6404 26.2893
lfingers 7.12502
lthumb -2.0044 56.2597
rfemur -6.20032 18.177 14.4642
rtibia 35.9377
rfoot -7.20476 -10.1613
rtoes -11.9733
lfemur -1.04907 -5.62448 -22.5484
ltibia 28.6388
lfoot 8.08677 1.58967
ltoes -17.409
431
root -6.64645 19.7379 0.862936 -14.1171 -84.389 10.7589
lowerback 5.08842 1.63174 -1.51411
upperback -2.16353 2.03007 -0.691811
thorax -5.12381 1.03991 -0.0598466
lowerneck -9.79011 -1.48612 -8.17688
upperneck -8.20465 -1.32769 4.77119
head -0.850931 -0.561385 2.94096
rclavicle 6.58474e-015 -5.96354e-016
rhumerus 96.3393 -21.0056 -55.8603
rradius 28.921
rwrist 22.1124
rhand -45.8224 -7.50827
rfingers 7.12502
rthumb -18.5749 -36.6414
lclavicle 6.58474e-015 -5.96354e-016
lhumerus 82.8779 24.2196 34.97
lradius 39.7676
lwrist 1.72359
lhand -28.0886 27.1773
lfingers 7.12502
lthumb -1.47149 57.152
rfemur -6.07451 17.9572 14.3661
rtibia 35.8505
rfoot -6.31425 -9.80133
rtoes -11.5703
lfemur -0.602312 -5.82574 -22.6176
ltibia 28.4613
lfoot 8.39838 1.64749
ltoes -18.8873
432
root -6.66392 19.7609 0.814214 -11.0428 -84.3566 7.90756
lowerback 4.80684 1.60289 -1.44982
upperback -2.21569 2.00646 -0.583898
thorax -5.01929 1.02818 0.0257986
lowerneck -9.81827 -1.52604 -8.2286
upperneck -8.28683 -1.3705 4.91799
head -0.86848 -0.58163 3.00067
rclavicle -6.31141e-015 3.18055e-015
rhumerus 96.5523 -21.0364 -55.8777
rradius 28.655
rwrist 22.0282
rhand -45.9964 -9.13518
rfingers 7.12502
rthumb -18.7422 -38.2523
lclavicle -6.31141e-015 3.18055e-015
lhumerus 83.0147 24.2657 34.9811
lradius 39.2934
lwrist 1.48028
lhand -27.1421 27.8655
lfingers 7.12502
lthumb -0.557291 57.8445
rfemur -6.51118 18.1141 14.6458
rtibia 35.7402
rfoot -5.47516 -9.93323
rtoes -11.2942
lfemur -0.841633 -5.92344 -22.1327
ltibia 28.3264
lfoot 8.85948 1.58374
ltoes -20.034
433
root -6.67727 19.7833 0.768165 -8.48347 -84.2855 5.56979
lowerback 4.60734 1.56502 -1.36262
upperback -2.30451 1.96721 -0.519982
thorax -4.99713 1.00722 0.0510259
lowerneck -9.83698 -1.60187 -8.24858
upperneck -8.33076 -1.4661 5.00056
head -0.872026 -0.629046 3.03045
rclavicle 2.81777e-014 -3.57812e-015
rhumerus 96.7989 -20.9246 -56.0164
rradius 28.2592
rwrist 21.7783
rhand -46.5152 -8.25279
rfingers 7.12502
rthumb -19.2412 -37.3209
lclavicle 2.81777e-014 -3.57812e-015
lhumerus 83.3127 24.24 35.1751
lradius 38.684
lwrist 1.00673
lhand -26.4691 27.9632
lfingers 7.12502
lthumb 0.0926915 57.9429
rfemur -6.95361 18.3881 14.8816
rtibia 35.6187
rfoot -4.59078 -10.1355
rtoes -11.3019
lfemur -1.11264 -6.02946 -21.6977
ltibia 28.2212
lfoot 9.26883 1.72047
ltoes -19.9185
434
root -6.69062 19.7979 0.730858 -8.46579 -84.2095 5.52496
lowerback 4.67627 1.50539 -1.36344
upperback -2.32865 1.88421 -0.551864
thorax -5.05944 0.965649 0.0235085
lowerneck -9.9185 -1.60619 -8.08113
upperneck -8.3183 -1.48605 4.89972
head -0.854594 -0.643515 2.96259
rclavicle -2.38045e-014 -2.38542e-015
rhumerus 97.0171 -20.7929 -56.1845
rradius 27.9645
rwrist 21.7822
rhand -47.1379 -7.59922
rfingers 7.12502
rthumb -19.8398 -36.6066
lclavicle -2.38045e-014 -2.38542e-015
lhumerus 83.535 24.2451 35.3558
lradius 38.1161
lwrist 0.46799
lhand -25.5924 28.6281
lfingers 7.12502
lthumb 0.939457 58.6058
rfemur -7.09916 18.5566 14.9214
rtibia 35.5233
rfoot -3.53457 -10.0987
rtoes -12.1302
lfemur -1.06176 -6.13152 -21.5867
ltibia 28.1115
lfoot 9.57265 1.87565
ltoes -19.6865
435
root -6.70824 19.8063 0.697695 -11.2346 -84.1504 8.05132
lowerback 4.93005 1.46116 -1.56724
upperback -2.2985 1.80144 -0.645912
thorax -5.17511 0.929742 0.0411851
lowerneck -9.93062 -1.53952 -7.96319
upperneck -8.31756 -1.40837 4.88239
head -0.858372 -0.608091 2.93646
rclavicle 3.67503e-014 -5.56597e-015
rhumerus 97.0331 -20.7542 -55.9807
rradius 27.8045
rwrist 21.5704
rhand -47.1235 -7.75381
rfingers 7.12502
rthumb -19.826 -36.7626
lclavicle 3.67503e-014 -5.56597e-015
lhumerus 83.7054 24.251 35.5403
lradius 37.5479
lwrist 0.0394635
lhand -24.7941 29.0453
lfingers 7.12502
lthumb 1.71039 59.0182
rfemur -7.00298 18.531 14.7066
rtibia 35.4759
rfoot -2.58681 -9.70647
rtoes -12.4005
lfemur -0.704011 -6.26801 -21.8282
ltibia 27.9808
lfoot 9.85231 2.16193
ltoes -19.2857
436
root -6.72649 19.8108 0.660741 -13.7482 -84.1643 10.3162
lowerback 5.14212 1.46003 -1.8292
upperback -2.24709 1.77672 -0.652083
thorax -5.25024 0.926262 0.178765
lowerneck -9.94197 -1.51477 -8.12716
upperneck -8.28651 -1.35502 5.00698
head -0.848132 -0.577083 3.01189
rclavicle -4.96962e-015 2.38542e-015
rhumerus 97.1645 -20.6201 -55.8499
rradius 27.6367
rwrist 21.0844
rhand -46.8581 -7.7441
rfingers 7.12502
rthumb -19.5708 -36.7791
lclavicle -4.96962e-015 2.38542e-015
lhumerus 83.9318 24.2588 35.9381
lradius 36.9107
lwrist -0.47961
lhand -24.4157 29.0964
lfingers 7.12502
lthumb 2.0759 59.066
rfemur -6.92911 18.6868 14.5607
rtibia 35.4747
rfoot -2.01604 -9.21259
rtoes -11.7027
lfemur -0.311502 -6.29698 -22.0048
ltibia 27.8466
lfoot 10.0871 2.48173
ltoes -18.4083
